<?xml version="1.0" standalone="no"?>
<!DOCTYPE svg PUBLIC "-//W3C//DTD SVG 20010904//EN"
 "http://www.w3.org/TR/2001/REC-SVG-20010904/DTD/svg10.dtd">
<svg version="1.0" xmlns="http://www.w3.org/2000/svg"
 width="640.000000pt" height="640.000000pt" viewBox="0 0 640.000000 640.000000"
 preserveAspectRatio="xMidYMid meet">
<metadata>
Created by potrace 1.16, written by Peter Selinger 2001-2019
</metadata>
<g transform="translate(0.000000,640.000000) scale(0.100000,-0.100000)"
fill="#000000" stroke="none">
<path d="M2680 6025 c-8 -2 -49 -9 -90 -15 -105 -17 -279 -74 -385 -128 -276
-138 -518 -378 -655 -652 -83 -166 -139 -374 -154 -577 l-5 -73 1506 0 c1358
0 1513 2 1572 16 141 35 271 112 365 216 77 85 119 156 157 269 30 87 33 104
33 224 0 121 -2 137 -32 224 -80 231 -235 387 -472 472 l-65 24 -880 1 c-484
1 -887 1 -895 -1z"/>
<path d="M1396 3931 c-3 -5 -1 -54 4 -109 44 -459 270 -843 644 -1094 206
-137 417 -213 665 -238 64 -6 520 -10 1213 -10 l1111 0 -7 98 c-34 475 -288
894 -697 1151 -130 81 -286 143 -466 184 -98 22 -101 22 -1280 25 -707 1
-1184 -1 -1187 -7z"/>
<path d="M2030 1840 c-163 -21 -301 -90 -420 -210 -204 -204 -265 -473 -172
-754 55 -168 199 -329 366 -411 159 -78 134 -76 1111 -72 833 3 863 4 953 25
140 31 214 58 347 123 309 150 559 414 695 734 67 155 120 393 120 538 l0 37
-1472 -1 c-810 -1 -1498 -5 -1528 -9z"/>
</g>
</svg>
